HIERARCHY
ROOT Hips
{
	OFFSET 0.000000 1.471914 24.280096
	CHANNELS 6 Xposition Yposition Zposition Xrotation Yrotation Zrotation
	JOINT Spine
	{
		OFFSET 0.000000 0.900110 1.860670
		CHANNELS 6 Xposition Yposition Zposition Xrotation Yrotation Zrotation
		JOINT Spine1
		{
			OFFSET 0.000000 0.400320 2.270309
			CHANNELS 6 Xposition Yposition Zposition Xrotation Yrotation Zrotation
			JOINT Spine2
			{
				OFFSET 0.000000 0.200920 2.296560
				CHANNELS 6 Xposition Yposition Zposition Xrotation Yrotation Zrotation
				JOINT Spine3
				{
					OFFSET 0.000000 0.000000 2.305330
					CHANNELS 6 Xposition Yposition Zposition Xrotation Yrotation Zrotation
					JOINT Neck
					{
						OFFSET 0.000000 -0.864490 6.051487
						CHANNELS 6 Xposition Yposition Zposition Xrotation Yrotation Zrotation
						JOINT Head
						{
							OFFSET 0.000000 -0.550429 3.121674
							CHANNELS 6 Xposition Yposition Zposition Xrotation Yrotation Zrotation
							End Site
							{
								OFFSET 0.000000 0.000000 3.731750
							}
						}
					}
					JOINT RightShoulder
					{
						OFFSET -0.788280 -1.313800 4.256718
						CHANNELS 6 Xposition Yposition Zposition Xrotation Yrotation Zrotation
						JOINT RightArm
						{
							OFFSET -3.915130 0.000000 0.000000
							CHANNELS 6 Xposition Yposition Zposition Xrotation Yrotation Zrotation
							JOINT RightForeArm
							{
								OFFSET -6.914910 0.000000 0.000000
								CHANNELS 6 Xposition Yposition Zposition Xrotation Yrotation Zrotation
								JOINT RightHand
								{
									OFFSET -6.096219 0.000000 0.000000
									CHANNELS 6 Xposition Yposition Zposition Xrotation Yrotation Zrotation
									JOINT RightHandEnd
									{
										OFFSET -1.749950 0.000000 0.000000
										CHANNELS 6 Xposition Yposition Zposition Xrotation Yrotation Zrotation
										End Site
										{
											OFFSET -1.749950 0.000000 0.000000
										}
									}
									JOINT RightHandThumb1
									{
										OFFSET -0.699980 -1.166630 -0.466648
										CHANNELS 6 Xposition Yposition Zposition Xrotation Yrotation Zrotation
										End Site
										{
											OFFSET -1.690319 -0.452920 0.000000
										}
									}
								}
							}
						}
					}
					JOINT LeftShoulder
					{
						OFFSET 0.788280 -1.313800 4.256718
						CHANNELS 6 Xposition Yposition Zposition Xrotation Yrotation Zrotation
						JOINT LeftArm
						{
							OFFSET 3.915130 0.000000 0.000000
							CHANNELS 6 Xposition Yposition Zposition Xrotation Yrotation Zrotation
							JOINT LeftForeArm
							{
								OFFSET 6.914910 0.000000 0.000000
								CHANNELS 6 Xposition Yposition Zposition Xrotation Yrotation Zrotation
								JOINT LeftHand
								{
									OFFSET 6.096219 0.000000 0.000000
									CHANNELS 6 Xposition Yposition Zposition Xrotation Yrotation Zrotation
									JOINT LeftHandEnd
									{
										OFFSET 1.749950 0.000000 0.000000
										CHANNELS 6 Xposition Yposition Zposition Xrotation Yrotation Zrotation
										End Site
										{
											OFFSET 1.749950 0.000000 0.000000
										}
									}
									JOINT LeftHandThumb1
									{
										OFFSET 0.699980 -1.166630 -0.466648
										CHANNELS 6 Xposition Yposition Zposition Xrotation Yrotation Zrotation
										End Site
										{
											OFFSET 1.690319 -0.452920 0.000000
										}
									}
								}
							}
						}
					}
				}
			}
		}
	}
	JOINT RightUpLeg
	{
		OFFSET -2.338570 -0.252550 -0.551512
		CHANNELS 6 Xposition Yposition Zposition Xrotation Yrotation Zrotation
		JOINT RightLeg
		{
			OFFSET 0.000000 0.000000 -10.744959
			CHANNELS 6 Xposition Yposition Zposition Xrotation Yrotation Zrotation
			JOINT RightFoot
			{
				OFFSET 0.000000 -0.000001 -10.930849
				CHANNELS 6 Xposition Yposition Zposition Xrotation Yrotation Zrotation
				JOINT RightToeBase
				{
					OFFSET 0.000000 -4.087269 -1.487650
					CHANNELS 6 Xposition Yposition Zposition Xrotation Yrotation Zrotation
					End Site
					{
						OFFSET 0.000000 -1.891870 0.000000
					}
				}
			}
		}
	}
	JOINT LeftUpLeg
	{
		OFFSET 2.338570 -0.252550 -0.551512
		CHANNELS 6 Xposition Yposition Zposition Xrotation Yrotation Zrotation
		JOINT LeftLeg
		{
			OFFSET 0.000000 0.000000 -10.744959
			CHANNELS 6 Xposition Yposition Zposition Xrotation Yrotation Zrotation
			JOINT LeftFoot
			{
				OFFSET 0.000000 -0.000001 -10.930849
				CHANNELS 6 Xposition Yposition Zposition Xrotation Yrotation Zrotation
				JOINT LeftToeBase
				{
					OFFSET 0.000000 -4.087269 -1.487650
					CHANNELS 6 Xposition Yposition Zposition Xrotation Yrotation Zrotation
					End Site
					{
						OFFSET 0.000000 -1.891870 0.000000
					}
				}
			}
		}
	}
}
MOTION
Frames: 4
Frame Time: 0.041667
0.000023 26.660742 39.991299 -3.895748 0.089845 -22.264369 -0.000000 0.900083 1.860663 9.444740 1.340710 -0.577918 -0.000018 0.400275 2.270286 0.000008 0.000000 0.000013 0.000013 0.200875 2.296560 0.000000 -0.000002 0.000004 0.000020 0.000015 2.305335 -0.000033 0.000001 0.941840 -0.000027 -0.864452 6.051372 22.343051 -4.107328 -179.981659 0.000045 -0.550412 3.121670 -0.000008 -0.000001 -0.000007 -0.788278 -1.313734 4.256838 -227.403744 7.628824 -16.544193 -3.915142 -0.000035 -0.000028 -0.000003 -0.000010 0.000003 -6.914847 -0.000004 0.000039 -0.000010 0.000016 -94.632544 -6.096182 0.000016 0.000035 -0.000082 -0.000105 -0.000082 -1.749897 -0.000014 0.000034 0.000003 -0.000001 0.000000 -0.699960 -1.166617 -0.466646 -0.000029 -0.000009 -0.000033 0.788255 -1.313778 4.256763 -233.554603 -3.106608 2.575037 3.915245 -0.000014 -0.000027 0.000006 0.000002 0.000004 6.914924 -0.000066 0.000003 -0.000056 0.000063 99.124637 6.096266 0.000163 -0.000035 -0.000059 0.000121 0.000061 1.750003 0.000014 0.000053 -0.000010 -0.000003 0.000001 0.699987 -1.166577 -0.466645 0.000041 -0.000004 -0.000043 -2.338593 -0.252540 -0.551449 11.328337 2.341391 -0.684370 0.000017 -0.000001 -10.744942 9.458184 0.771589 -0.178135 -0.000029 0.000075 -10.930843 0.000072 0.000003 0.000000 -0.000033 -4.087244 -1.487618 0.000002 0.000002 0.000003 2.338595 -0.252539 -0.551490 11.315183 1.564588 -0.697998 -0.000027 -0.000008 -10.744928 9.693017 0.884473 -0.322602 0.000007 -0.000017 -10.930859 0.000015 0.000003 -0.000008 -0.000056 -4.087208 -1.487649 -0.000000 -0.000001 -0.000009 
0.000027 26.660740 39.991295 -3.563972 0.137543 -22.278238 -0.000002 0.900092 1.860660 7.802468 1.322567 -0.469680 -0.000018 0.400276 2.270290 0.000008 0.000001 0.000013 0.000015 0.200874 2.296555 -0.000000 -0.000002 -0.000001 0.000020 0.000013 2.305331 -0.000029 0.000002 0.725619 -0.000025 -0.864458 6.051375 23.992651 -3.857409 -180.548278 0.000046 -0.550410 3.121662 -0.000012 -0.000001 -0.000007 -0.788277 -1.313740 4.256846 -229.909577 7.388575 -22.801441 -3.915142 -0.000030 -0.000032 -0.000005 -0.000012 0.000003 -6.914847 -0.000002 0.000024 0.000008 0.000033 -83.648849 -6.096178 0.000011 0.000042 -0.000082 -0.000108 -0.000079 -1.749909 -0.000011 0.000036 0.000007 -0.000001 0.000001 -0.699972 -1.166613 -0.466640 -0.000029 -0.000004 -0.000032 0.788256 -1.313782 4.256767 -235.817909 -1.455972 10.229134 3.915246 -0.000007 -0.000034 0.000002 0.000001 0.000002 6.914924 -0.000061 0.000014 -0.000024 0.000045 88.123886 6.096270 0.000160 -0.000039 -0.000058 0.000120 0.000061 1.750008 0.000016 0.000061 -0.000013 -0.000008 0.000000 0.699997 -1.166571 -0.466642 0.000039 -0.000007 -0.000045 -2.338594 -0.252535 -0.551452 11.146227 1.874126 -0.661271 0.000020 -0.000006 -10.744942 9.373260 0.845136 -0.243110 -0.000029 0.000073 -10.930842 0.000067 0.000003 -0.000004 -0.000031 -4.087252 -1.487618 0.000002 0.000001 -0.000001 2.338592 -0.252530 -0.551491 10.835232 1.358961 -0.657521 -0.000027 -0.000008 -10.744930 10.051459 0.625847 -0.360627 0.000007 -0.000015 -10.930864 0.000015 0.000001 -0.000010 -0.000056 -4.087206 -1.487649 -0.000001 -0.000001 -0.000007 
0.000028 26.660748 39.991280 -3.361846 -0.054174 -21.815223 -0.000002 0.900091 1.860668 6.940597 1.188955 -0.461237 -0.000018 0.400280 2.270286 0.000008 0.000000 0.000012 0.000015 0.200878 2.296556 -0.000000 -0.000002 0.000001 0.000022 0.000014 2.305324 -0.000029 -0.000001 0.824544 -0.000025 -0.864447 6.051383 24.933739 -3.633417 -179.676268 0.000046 -0.550406 3.121662 -0.000012 -0.000001 -0.000007 -0.788277 -1.313731 4.256853 -231.804217 8.153585 -27.093025 -3.915145 -0.000027 -0.000020 -0.000003 -0.000011 0.000004 -6.914847 -0.000001 0.000034 0.000020 0.000051 -76.371719 -6.096185 0.000012 0.000035 -0.000080 -0.000109 -0.000079 -1.749895 -0.000009 0.000029 0.000006 -0.000003 0.000000 -0.699957 -1.166614 -0.466653 -0.000026 -0.000006 -0.000032 0.788256 -1.313767 4.256773 -237.396284 -1.682110 14.428384 3.915244 -0.000014 -0.000034 0.000001 -0.000002 0.000002 6.914927 -0.000063 0.000008 -0.000010 0.000031 80.326337 6.096270 0.000161 -0.000038 -0.000056 0.000120 0.000060 1.749999 0.000015 0.000064 -0.000012 -0.000007 -0.000003 0.699986 -1.166574 -0.466641 0.000041 -0.000002 -0.000042 -2.338593 -0.252534 -0.551446 10.871217 1.676665 -0.712501 0.000019 -0.000006 -10.744946 9.903360 0.938697 -0.351528 -0.000030 0.000069 -10.930847 0.000068 0.000003 -0.000001 -0.000030 -4.087244 -1.487612 0.000005 0.000002 0.000003 2.338592 -0.252529 -0.551485 10.172418 1.185225 -0.680928 -0.000027 -0.000009 -10.744926 10.726882 0.573333 -0.483577 0.000007 -0.000020 -10.930861 0.000015 0.000001 -0.000009 -0.000056 -4.087209 -1.487649 0.000004 0.000001 -0.000007 
0.000010 26.660749 39.991257 -3.407094 -0.013320 -21.435973 -0.000000 0.900095 1.860668 6.544751 0.933656 -0.415244 -0.000017 0.400276 2.270286 0.000007 0.000000 0.000012 0.000013 0.200870 2.296545 0.000000 -0.000002 0.000003 0.000023 0.000012 2.305327 -0.000032 0.000001 0.727790 -0.000027 -0.864455 6.051381 25.750913 -3.465758 -179.700733 0.000046 -0.550404 3.121658 -0.000011 0.000001 -0.000006 -0.788277 -1.313739 4.256848 -232.107750 9.242001 -29.531197 -3.915139 -0.000036 -0.000028 -0.000005 -0.000013 0.000004 -6.914845 -0.000004 0.000037 0.000026 0.000061 -71.799987 -6.096179 0.000010 0.000040 -0.000082 -0.000108 -0.000080 -1.749903 -0.000014 0.000028 0.000001 -0.000006 0.000001 -0.699966 -1.166617 -0.466657 -0.000031 -0.000006 -0.000038 0.788256 -1.313782 4.256767 -236.453690 -1.738652 16.190639 3.915244 -0.000009 -0.000038 0.000003 0.000003 0.000003 6.914925 -0.000060 0.000009 -0.000001 0.000021 75.939860 6.096267 0.000162 -0.000035 -0.000058 0.000118 0.000064 1.750011 0.000014 0.000060 -0.000011 -0.000007 0.000003 0.699995 -1.166574 -0.466643 0.000049 -0.000009 -0.000037 -2.338593 -0.252530 -0.551445 10.968507 1.730391 -0.685923 0.000018 -0.000006 -10.744941 10.412906 0.450045 -0.328730 -0.000029 0.000074 -10.930845 0.000073 0.000003 -0.000002 -0.000031 -4.087244 -1.487619 0.000000 0.000000 0.000002 2.338594 -0.252526 -0.551481 10.026803 0.971769 -0.640725 -0.000029 -0.000004 -10.744929 11.522323 0.671142 -0.527517 0.000008 -0.000021 -10.930860 0.000017 0.000002 -0.000007 -0.000056 -4.087211 -1.487650 0.000003 -0.000002 -0.000007 
